<?xml version="1.0" encoding="utf-8"?>
<!-- Generator: Adobe Illustrator 28.3.0, SVG Export Plug-In . SVG Version: 6.00 Build 0)  -->
<svg version="1.1" id="Layer_1" xmlns="http://www.w3.org/2000/svg" xmlns:xlink="http://www.w3.org/1999/xlink" x="0px" y="0px"
	 viewBox="0 0 164.6 15.5" style="enable-background:new 0 0 164.6 15.5;" xml:space="preserve">
<style type="text/css">
	.st0{fill:#FFFFFF;}
	.st1{fill:#D9D9D9;}
	.st2{fill:#262626;}
	.st3{fill:#808080;}
</style>
<g>
	<path class="st0" d="M4.5,9.3H1.8l1.4-3L4.5,9.3z M5.5,11.7h0.7L3.5,5.6H2.8L0,11.7h0.7l0.8-1.9h3.2L5.5,11.7z"/>
	<path class="st0" d="M14.7,7.3c-0.1-1-0.9-1.3-1.9-1.3s-1.7,0.4-1.7,1.1c0,0.8,0.7,1,2.2,1.2c1.1,0.2,2.2,0.4,2.2,1.6
		c0,1.5-1.4,1.9-2.5,1.9c-1.5,0-2.7-0.5-2.8-2.2h0.6c0.1,1.3,1,1.6,2.1,1.6c0.9,0,1.9-0.2,1.9-1.2c0-0.9-1.1-1-2.2-1.2
		c-1.5-0.2-2.2-0.6-2.2-1.6c0-1.3,1.2-1.8,2.4-1.8c1.3,0,2.5,0.4,2.6,1.9H14.7z"/>
	<path class="st0" d="M18.8,6.2h-2.4V5.6h5.4v0.6h-2.4v5.5h-0.6V6.2z"/>
	<path class="st0" d="M26.7,9.3H24l1.4-3L26.7,9.3z M27.7,11.7h0.8l-2.8-6.1H25l-2.8,6.1h0.7l0.8-1.9h3.2L27.7,11.7z"/>
	<path class="st0" d="M30.4,6.2h2.7c0.6,0,1.3,0.2,1.3,1.1c0,0.9-0.6,1.2-1.3,1.2h-2.7C30.4,8.5,30.4,6.2,30.4,6.2z M29.8,11.7h0.6
		V9h2.5c1.1,0,1.5,0.4,1.5,1.4c0,0.7,0.1,1.1,0.2,1.2h0.7c-0.1-0.1-0.2-0.9-0.2-1.3c0-1-0.2-1.6-1.1-1.7l0,0
		c0.8-0.2,1.2-0.8,1.2-1.5c0-1.3-0.9-1.7-2-1.7h-3.3v6.3H29.8z"/>
	<path class="st0" d="M43.7,9.3H41l1.4-3L43.7,9.3z M44.7,11.7h0.8l-2.8-6.1H42l-2.8,6.1h0.7l0.8-1.9h3.2L44.7,11.7z"/>
	<path class="st0" d="M46.7,5.6h0.6v5.5h3.9v0.6h-4.5V5.6z"/>
	<path class="st0" d="M52.5,5.6h0.6v5.5H57v0.6h-4.5V5.6z"/>
	<path class="st0" d="M58.3,5.6h0.6v6.1h-0.6V5.6z"/>
	<path class="st0" d="M64.7,9.3H62l1.4-3L64.7,9.3z M65.8,11.7h0.7l-2.8-6.1H63l-2.8,6.1h0.7l0.8-1.9h3.2L65.8,11.7z"/>
	<path class="st0" d="M67.7,5.6h0.8l4.3,5.2l0,0V5.6h0.6v6.1h-0.7l-4.3-5.2l0,0v5.2h-0.6V5.6H67.7z"/>
	<path class="st0" d="M81.3,9.4c-0.1,1.4-1.3,2.5-3,2.5c-2,0-3.3-1.2-3.3-3.2c0-1.4,0.9-3.2,3.3-3.2c1.3,0,2.8,0.6,3,2.2h-0.6
		c-0.2-1.2-1.2-1.6-2.3-1.6c-1.5,0-2.6,0.8-2.6,2.6c0,1.4,0.7,2.6,2.6,2.6c1.5,0,2.2-0.7,2.4-1.9L81.3,9.4L81.3,9.4z"/>
	<path class="st0" d="M83,5.6h4.9v0.6h-4.2v2.1h4.1v0.6h-4.1v2.3H88v0.6h-4.9V5.6H83z"/>
	<path class="st0" d="M98.9,5.6h0.9v6.1h-0.6V6.4l0,0l-2.7,5.3h-0.6l-2.7-5.3l0,0v5.3h-0.6V5.6h0.9l2.7,5.3L98.9,5.6z"/>
	<path class="st0" d="M101.8,5.6h4.9v0.6h-4.2v2.1h4.1v0.6h-4.1v2.3h4.3v0.6h-4.9V5.6H101.8z"/>
	<path class="st0" d="M114.6,5.6h0.9v6.1h-0.6V6.4l0,0l-2.7,5.3h-0.6l-2.7-5.3l0,0v5.3h-0.6V5.6h0.9l2.7,5.3L114.6,5.6z"/>
	<path class="st0" d="M118,6.2h2.7c0.7,0,1.2,0.2,1.2,1s-0.6,1.1-1.4,1.1H118C118,8.3,118,6.2,118,6.2z M117.4,11.7h3.4
		c0.9,0,2-0.5,2-1.7c0-0.8-0.5-1.4-1.3-1.5l0,0c0.7-0.2,1.1-0.7,1.1-1.3c0-0.9-0.5-1.5-1.7-1.5h-3.5V11.7z M118,8.8h2.8
		c0.7,0,1.3,0.2,1.3,1.1c0,0.8-0.6,1.2-1.4,1.2H118C118,11.1,118,8.8,118,8.8z"/>
	<path class="st0" d="M124.5,5.6h4.9v0.6h-4.2v2.1h4.1v0.6h-4.1v2.3h4.3v0.6h-5V5.6z"/>
	<path class="st0" d="M131.7,6.2h2.7c0.6,0,1.3,0.2,1.3,1.1c0,0.9-0.6,1.2-1.3,1.2h-2.7V6.2z M131.1,11.7h0.6V9h2.5
		c1.1,0,1.5,0.4,1.5,1.4c0,0.7,0.1,1.1,0.2,1.2h0.7c-0.1-0.1-0.2-0.9-0.2-1.3c0-1-0.2-1.6-1.1-1.7l0,0c0.8-0.2,1.2-0.8,1.2-1.5
		c0-1.3-0.9-1.7-2-1.7h-3.3L131.1,11.7L131.1,11.7z"/>
</g>
<g>
	<g>
		<path class="st1" d="M146.7,4.3c0.6-0.8,1.2-1.6,1.9-2.3s1.5-1.4,2.2-2L150,3.4L146.7,4.3z"/>
		<path class="st2" d="M152.5,5.7c-1-0.1-2-0.3-3-0.5s-1.9-0.6-2.9-0.9l3.3-1L152.5,5.7z"/>
		<path class="st3" d="M150.9,0c0.4,0.9,0.8,1.8,1,2.8c0.3,1,0.5,2,0.6,2.9L150,3.3L150.9,0z"/>
	</g>
	<g>
		<path class="st3" d="M145.5,11.2c-0.6-0.8-1.1-1.6-1.6-2.5s-0.9-1.8-1.2-2.8l2.9,1.8L145.5,11.2z"/>
		<path class="st2" d="M148.7,6.1c-0.4,0.9-0.9,1.8-1.4,2.7s-1.1,1.7-1.8,2.4l0.1-3.5L148.7,6.1z"/>
		<path class="st1" d="M142.7,5.9c1-0.1,2-0.1,3-0.1s2,0.1,3,0.3l-3.1,1.6L142.7,5.9z"/>
	</g>
	<g>
		<path class="st2" d="M151.8,14.4c-0.9,0.3-1.9,0.6-2.9,0.7c-1,0.2-2,0.3-3,0.3l2.7-2.2L151.8,14.4z"/>
		<path class="st3" d="M147.9,9.8c0.7,0.7,1.4,1.4,2.1,2.2c0.7,0.8,1.2,1.6,1.8,2.4l-3.3-1.2L147.9,9.8z"/>
		<path class="st1" d="M145.8,15.5c0.2-1,0.5-1.9,0.8-2.9s0.8-1.9,1.2-2.7l0.6,3.4L145.8,15.5z"/>
	</g>
	<g>
		<path class="st3" d="M156.8,9.5c0,1-0.1,2-0.2,3s-0.4,2-0.6,2.9l-1.3-3.2L156.8,9.5z"/>
		<path class="st1" d="M151.2,11.8c0.9-0.5,1.8-0.9,2.7-1.3c0.9-0.4,1.9-0.7,2.9-0.9l-2.1,2.7L151.2,11.8z"/>
		<path class="st2" d="M155.9,15.5c-0.9-0.5-1.7-1-2.5-1.7c-0.8-0.6-1.5-1.3-2.2-2l3.4,0.5L155.9,15.5z"/>
	</g>
	<g>
		<path class="st3" d="M153.7,3.3c0.9,0.3,1.9,0.7,2.8,1.1c0.9,0.4,1.8,1,2.6,1.5l-3.5,0.2L153.7,3.3z"/>
		<path class="st1" d="M154.1,9.2c-0.2-1-0.4-2-0.4-3c-0.1-1-0.1-2,0-3l1.9,2.9L154.1,9.2z"/>
		<path class="st2" d="M159,5.9c-0.7,0.7-1.5,1.3-2.4,1.9c-0.8,0.6-1.7,1.1-2.6,1.5l1.5-3.1L159,5.9z"/>
	</g>
</g>
</svg>
